# xmcd
#
# Track frame offsets: 
#        150
#        10574
#        24412
#        34614
#        45464
#        56161
#        71169
#        88177
#        103039
#        115041
#
# Disc length: 1651 seconds
#
# Revision: 0
# Processed by: cddbd v1.4PL0 Copyright (c) Steve Scherf et al.
# Submitted via: ExactAudioCopy v0.90b4
#
DISCID=7806710a
DTITLE=Norm Elder - Tonight I Feel Eighteen
DYEAR=2000
DGENRE=Country
TTITLE0=Tonight I Feel 18
TTITLE1=Goin' Through The Motions
TTITLE2=Two Stepping Our Love
TTITLE3=Walking In The Footsteps Of A Fool
TTITLE4=She Was The One
TTITLE5=A Motel In Downey
TTITLE6=Diane
TTITLE7=I Don't Want To Come Home To You Anymore
TTITLE8=All Of My Life
TTITLE9=Breaking Up's So Bad
EXTD=
EXTT0=
EXTT1=
EXTT2=
EXTT3=
EXTT4=
EXTT5=
EXTT6=
EXTT7=
EXTT8=
EXTT9=
PLAYORDER=
